<svg width="42" height="12" viewBox="0 0 42 12" fill="none" xmlns="http://www.w3.org/2000/svg">
<path d="M40.75 4.77295C41.1642 4.77295 41.5 5.10874 41.5 5.52295C41.5 5.93716 41.1642 6.27295 40.75 6.27295V5.52295V4.77295ZM0.219669 6.05328C-0.0732231 5.76039 -0.0732231 5.28551 0.219669 4.99262L4.99264 0.219648C5.28553 -0.073245 5.76041 -0.073245 6.0533 0.219648C6.3462 0.512542 6.3462 0.987415 6.0533 1.28031L1.81066 5.52295L6.0533 9.76559C6.3462 10.0585 6.3462 10.5334 6.0533 10.8263C5.76041 11.1191 5.28553 11.1191 4.99264 10.8263L0.219669 6.05328ZM40.75 5.52295V6.27295L0.75 6.27295V5.52295V4.77295L40.75 4.77295V5.52295Z" fill="#717171"/>
</svg>
