<svg width="52" height="15" viewBox="0 0 52 15" fill="none" xmlns="http://www.w3.org/2000/svg">
<path d="M1 6.36397C0.447715 6.36397 0 6.81168 0 7.36397C0 7.91625 0.447715 8.36397 1 8.36397V7.36397V6.36397ZM51.7071 8.07107C52.0976 7.68055 52.0976 7.04739 51.7071 6.65686L45.3431 0.2929C44.9526 -0.0976243 44.3195 -0.0976243 43.9289 0.2929C43.5384 0.683424 43.5384 1.31659 43.9289 1.70711L49.5858 7.36397L43.9289 13.0208C43.5384 13.4113 43.5384 14.0445 43.9289 14.435C44.3195 14.8256 44.9526 14.8256 45.3431 14.435L51.7071 8.07107ZM1 7.36397V8.36397L51 8.36397V7.36397V6.36397L1 6.36397V7.36397Z" fill="#F8B0B9"/>
</svg>
