<svg width="43" height="29" viewBox="0 0 43 29" fill="none" xmlns="http://www.w3.org/2000/svg">
<path d="M3.48568 0.0283673C3.03204 0.120794 2.26758 0.431684 2.26758 0.507306C2.26758 0.55772 6.41753 4.75053 11.4916 9.81719C18.0021 16.3375 20.7995 19.0767 21.018 19.1691C21.5136 19.3708 22.0009 19.3287 22.4377 19.0515C22.6393 18.917 26.8901 14.7242 31.8801 9.72477L40.9529 0.633342L40.7512 0.482098C40.642 0.398074 40.3564 0.255233 40.1212 0.171209C39.7096 0.0199649 39.1383 0.0115625 21.6732 0.00316003C11.7604 -0.0052424 3.57809 0.00316003 3.48568 0.0283673Z" fill="black"/>
<path d="M0.294025 2.57415C0.00840071 3.03629 0 3.36398 0 14.514C0 25.2019 0.00840071 25.5128 0.168014 26.0337C0.252021 26.3278 0.386433 26.6387 0.453638 26.7311C0.571248 26.8908 0.882075 26.6051 6.63656 20.8494L12.6851 14.7997L6.51895 8.6323C2.50341 4.61594 0.336028 2.50693 0.294025 2.57415Z" fill="black"/>
<path d="M36.5595 8.8173C33.2244 12.1531 30.4941 14.9259 30.4941 14.9679C30.4941 15.0183 33.1824 17.7407 36.4586 21.0176C41.2134 25.765 42.44 26.9581 42.5072 26.8573C42.5576 26.7901 42.6752 26.5212 42.776 26.2691L42.9692 25.807L42.9944 14.6738C43.0112 3.34732 43.0028 2.86838 42.7172 2.76755C42.6668 2.75075 39.9029 5.47313 36.5595 8.8173Z" fill="black"/>
<path d="M8.6268 22.7234C5.35893 25.9919 2.6875 28.6891 2.6875 28.7143C2.6875 28.7479 2.86391 28.8235 3.09073 28.8824C3.41836 28.9832 6.43422 29 21.5051 29C36.576 29 39.5918 28.9832 39.9279 28.8824C40.1463 28.8235 40.3227 28.7479 40.3227 28.7143C40.3227 28.6303 28.6121 16.9425 28.5197 16.9425C28.4777 16.9425 27.4528 17.9256 26.2515 19.1187C23.9749 21.379 23.7313 21.5807 22.7316 21.8747C22.1856 22.0428 21.0767 22.0428 20.5306 21.8747C19.5309 21.5807 19.2873 21.3874 16.9267 19.0347C15.675 17.7912 14.6333 16.7745 14.6165 16.7745C14.5913 16.7745 11.9031 19.4464 8.6268 22.7234Z" fill="black"/>
</svg>
