<svg width="43" height="30" viewBox="0 0 43 30" fill="none" xmlns="http://www.w3.org/2000/svg">
<path d="M3.48535 0.0285225C3.03184 0.12151 2.26758 0.434282 2.26758 0.510363C2.26758 0.561083 6.41641 4.77929 11.4891 9.87665C17.9979 16.4364 20.7945 19.1922 21.0129 19.2852C21.5084 19.4881 21.9955 19.4458 22.4322 19.1669C22.6338 19.0316 26.8834 14.8134 31.8721 9.78366L40.9424 0.637163L40.7408 0.485003C40.6316 0.400469 40.3461 0.256763 40.1109 0.17223C39.6994 0.0200691 39.1283 0.0116158 21.668 0.00316238C11.7578 -0.00529099 3.57773 0.00316238 3.48535 0.0285225Z" fill="#FCFCFC"/>
<path d="M0.293945 2.58964C0.00839844 3.05457 0 3.38425 0 14.6018C0 25.3544 0.00839844 25.6672 0.167969 26.1913C0.251953 26.4872 0.386328 26.8 0.453516 26.8929C0.571094 27.0536 0.881836 26.7661 6.63477 20.9756L12.6816 14.8892L6.51719 8.68449C2.50273 4.6438 0.335938 2.52201 0.293945 2.58964Z" fill="#FCFCFC"/>
<path d="M36.55 8.87066C33.2158 12.2266 30.4863 15.0162 30.4863 15.0585C30.4863 15.1092 33.1738 17.8481 36.4492 21.1449C41.2027 25.921 42.4289 27.1214 42.4961 27.0199C42.5465 26.9523 42.6641 26.6818 42.7648 26.4282L42.958 25.9633L42.9832 14.7626C43 3.36754 42.9916 2.8857 42.7061 2.78426C42.6557 2.76736 39.8926 5.50623 36.55 8.87066Z" fill="#FCFCFC"/>
<path d="M8.6252 22.861C5.3582 26.1494 2.6875 28.8629 2.6875 28.8882C2.6875 28.922 2.86387 28.9981 3.09063 29.0573C3.41816 29.1587 6.4332 29.1756 21.5 29.1756C36.5668 29.1756 39.5818 29.1587 39.9178 29.0573C40.1361 28.9981 40.3125 28.922 40.3125 28.8882C40.3125 28.8037 28.6051 17.0451 28.5127 17.0451C28.4707 17.0451 27.4461 18.0342 26.2451 19.2345C23.9691 21.5085 23.7256 21.7114 22.7262 22.0072C22.1803 22.1763 21.0717 22.1763 20.5258 22.0072C19.5264 21.7114 19.2828 21.5169 16.9229 19.15C15.6715 17.8989 14.6301 16.8761 14.6133 16.8761C14.5881 16.8761 11.9006 19.5642 8.6252 22.861Z" fill="#FCFCFC"/>
</svg>
