<svg width="68" height="67" viewBox="0 0 68 67" fill="none" xmlns="http://www.w3.org/2000/svg">
<path d="M63.5 7.5V35C63.5 36.933 61.933 38.5 60 38.5H8C6.067 38.5 4.5 36.933 4.5 35V7.5H63.5Z" stroke="url(#paint0_linear_1811_5232)" stroke-width="3"/>
<rect x="1.5" y="1.5" width="65" height="6" rx="2.5" stroke="url(#paint1_linear_1811_5232)" stroke-width="3"/>
<mask id="path-3-inside-1_1811_5232" fill="white">
<path d="M18 52H49V65C49 66.1046 48.1046 67 47 67H20C18.8954 67 18 66.1046 18 65V52Z"/>
</mask>
<path d="M18 52H49V65C49 66.1046 48.1046 67 47 67H20C18.8954 67 18 66.1046 18 65V52Z" stroke="url(#paint2_linear_1811_5232)" stroke-width="6" mask="url(#path-3-inside-1_1811_5232)"/>
<rect x="15.5" y="47.5" width="36" height="6" rx="2.5" stroke="url(#paint3_linear_1811_5232)" stroke-width="3"/>
<path d="M33.5 35.5C35.5091 35.5 37.4725 35.9162 39.2666 36.6982C40.8003 37.3668 42.2089 38.3026 43.417 39.4717C45.6671 41.6493 47.0625 44.4852 47.4121 47.5H19.5879C19.9375 44.4852 21.3329 41.6493 23.583 39.4717C24.7911 38.3026 26.1997 37.3668 27.7334 36.6982C29.5275 35.9162 31.4909 35.5 33.5 35.5Z" fill="#F0F0F0" stroke="url(#paint4_linear_1811_5232)" stroke-width="3"/>
<circle cx="33.8825" cy="27.34" r="7.43034" fill="#F0F0F0" stroke="url(#paint5_linear_1811_5232)" stroke-width="3"/>
<defs>
<linearGradient id="paint0_linear_1811_5232" x1="27.18" y1="0.049998" x2="54.3782" y2="36.6571" gradientUnits="userSpaceOnUse">
<stop offset="0.0144231" stop-color="#D90D26"/>
<stop offset="0.488373" stop-color="#E94055"/>
<stop offset="1" stop-color="#D90D26"/>
</linearGradient>
<linearGradient id="paint1_linear_1811_5232" x1="26.52" y1="-1.575" x2="29.1328" y2="12.9957" gradientUnits="userSpaceOnUse">
<stop offset="0.0144231" stop-color="#D90D26"/>
<stop offset="0.488373" stop-color="#E94055"/>
<stop offset="1" stop-color="#D90D26"/>
</linearGradient>
<linearGradient id="paint2_linear_1811_5232" x1="30.09" y1="49.375" x2="41.5828" y2="66.906" gradientUnits="userSpaceOnUse">
<stop offset="0.0144231" stop-color="#D90D26"/>
<stop offset="0.488373" stop-color="#E94055"/>
<stop offset="1" stop-color="#D90D26"/>
</linearGradient>
<linearGradient id="paint3_linear_1811_5232" x1="29.21" y1="44.425" x2="33.4934" y2="58.125" gradientUnits="userSpaceOnUse">
<stop offset="0.0144231" stop-color="#D90D26"/>
<stop offset="0.488373" stop-color="#E94055"/>
<stop offset="1" stop-color="#D90D26"/>
</linearGradient>
<linearGradient id="paint4_linear_1811_5232" x1="30.09" y1="31.375" x2="41.5828" y2="48.906" gradientUnits="userSpaceOnUse">
<stop offset="0.0144231" stop-color="#D90D26"/>
<stop offset="0.488373" stop-color="#E94055"/>
<stop offset="1" stop-color="#D90D26"/>
</linearGradient>
<linearGradient id="paint5_linear_1811_5232" x1="31.9178" y1="15.284" x2="46.178" y2="25.8094" gradientUnits="userSpaceOnUse">
<stop offset="0.0144231" stop-color="#D90D26"/>
<stop offset="0.488373" stop-color="#E94055"/>
<stop offset="1" stop-color="#D90D26"/>
</linearGradient>
</defs>
</svg>
