<svg width="72" height="68" viewBox="0 0 72 68" fill="none" xmlns="http://www.w3.org/2000/svg">
<path d="M20.1553 26.1714H60.8447C64.5202 26.1716 67.4998 29.1511 67.5 32.8267V56.645C67.5 60.8015 64.1301 64.1714 59.9736 64.1714H21.0264C16.8699 64.1714 13.5 60.8015 13.5 56.645V32.8267C13.5002 29.1511 16.4798 26.1716 20.1553 26.1714Z" stroke="url(#paint0_linear_1811_5260)" stroke-width="3" stroke-linecap="round"/>
<path d="M67.5 34.1714V55.1714H13.5V34.1714H67.5Z" stroke="url(#paint1_linear_1811_5260)" stroke-width="3" stroke-linecap="round"/>
<path d="M40.3171 8.28008L26.3539 4.1108C25.2897 3.79303 24.1704 4.40325 23.8609 5.46993L18 25.6714M29.5289 25.6714L31.7209 22.4663L43.8412 2.46417C44.4328 1.48796 45.72 1.20399 46.6674 1.84072L65.3251 14.3808C66.2477 15.0009 66.4876 16.2543 65.8592 17.1713L62.2308 22.4663L60.0345 25.6714" stroke="url(#paint2_linear_1811_5260)" stroke-width="3" stroke-linecap="round"/>
<path d="M59 39.1714H69.1426C69.8921 39.1714 70.5 39.7793 70.5 40.5288V48.814C70.5 49.5635 69.8921 50.1714 69.1426 50.1714H59C55.9624 50.1714 53.5 47.709 53.5 44.6714C53.5 41.6338 55.9624 39.1714 59 39.1714Z" fill="#F0F0F0" stroke="url(#paint3_linear_1811_5260)" stroke-width="3"/>
<mask id="path-5-inside-1_1811_5260" fill="white">
<path d="M55 27.6714C55 25.2844 54.0518 22.9953 52.364 21.3074C50.6761 19.6196 48.3869 18.6714 46 18.6714C43.6131 18.6714 41.3239 19.6196 39.636 21.3074C37.9482 22.9953 37 25.2844 37 27.6714L46 27.6714H55Z"/>
</mask>
<path d="M55 27.6714C55 25.2844 54.0518 22.9953 52.364 21.3074C50.6761 19.6196 48.3869 18.6714 46 18.6714C43.6131 18.6714 41.3239 19.6196 39.636 21.3074C37.9482 22.9953 37 25.2844 37 27.6714L46 27.6714H55Z" stroke="url(#paint4_linear_1811_5260)" stroke-width="6" mask="url(#path-5-inside-1_1811_5260)"/>
<path d="M4.5752 48.5811H21.7295C23.428 48.5811 24.8054 49.9578 24.8057 51.6562V54.5186C24.8057 60.9542 19.588 66.1719 13.1523 66.1719C6.7169 66.1717 1.5 60.9541 1.5 54.5186V51.6562C1.50026 49.958 2.87692 48.5813 4.5752 48.5811Z" fill="#F0F0F0" stroke="url(#paint5_linear_1811_5260)" stroke-width="3"/>
<path d="M13.4072 37.1489C17.8277 37.1489 21.4111 40.7324 21.4111 45.1528V48.3052H5.40332V45.1528C5.40333 40.7324 8.98679 37.1489 13.4072 37.1489Z" fill="#F0F0F0" stroke="url(#paint6_linear_1811_5260)" stroke-width="3"/>
<mask id="path-8-inside-2_1811_5260" fill="white">
<path d="M13.1528 52.917C14.6581 52.9172 15.8784 54.1378 15.8784 55.6436C15.8784 56.7027 15.2731 57.6178 14.3911 58.0693V60.4355C14.3911 61.1199 13.8362 61.6748 13.1519 61.6748C12.4677 61.6746 11.9136 61.1197 11.9136 60.4355V58.0693C11.0316 57.6178 10.4263 56.7026 10.4263 55.6436C10.4263 54.1377 11.6473 52.917 13.1528 52.917Z"/>
</mask>
<path d="M13.1528 52.917L13.1533 49.917H13.1528V52.917ZM15.8784 55.6436L18.8784 55.6437V55.6436H15.8784ZM14.3911 58.0693L13.0241 55.3989L11.3911 56.2348V58.0693H14.3911ZM13.1519 61.6748L13.1508 64.6748H13.1519V61.6748ZM11.9136 58.0693H14.9136V56.2349L13.2807 55.399L11.9136 58.0693ZM10.4263 55.6436H7.42627V55.6437L10.4263 55.6436ZM13.1528 52.917L13.1524 55.917C13.0005 55.917 12.8784 55.794 12.8784 55.6436H15.8784H18.8784C18.8784 52.4816 16.3157 49.9175 13.1533 49.917L13.1528 52.917ZM15.8784 55.6436L12.8784 55.6434C12.8784 55.5931 12.8946 55.5372 12.923 55.4918C12.9485 55.4512 12.9826 55.4201 13.0241 55.3989L14.3911 58.0693L15.7581 60.7398C17.5974 59.7983 18.8783 57.8786 18.8784 55.6437L15.8784 55.6436ZM14.3911 58.0693H11.3911V60.4355H14.3911H17.3911V58.0693H14.3911ZM14.3911 60.4355H11.3911C11.3911 59.463 12.1793 58.6748 13.1519 58.6748V61.6748V64.6748C15.493 64.6748 17.3911 62.7767 17.3911 60.4355H14.3911ZM13.1519 61.6748L13.1529 58.6748C14.1269 58.6751 14.9136 59.4649 14.9136 60.4355H11.9136H8.91357C8.91357 62.7745 10.8086 64.674 13.1508 64.6748L13.1519 61.6748ZM11.9136 60.4355H14.9136V58.0693H11.9136H8.91357V60.4355H11.9136ZM11.9136 58.0693L13.2807 55.399C13.3222 55.4202 13.3562 55.4512 13.3817 55.4918C13.41 55.5371 13.4263 55.593 13.4263 55.6434L10.4263 55.6436L7.42627 55.6437C7.42635 57.8786 8.70744 59.7982 10.5464 60.7397L11.9136 58.0693ZM10.4263 55.6436H13.4263C13.4263 55.7948 13.3039 55.917 13.1528 55.917V52.917V49.917C9.99077 49.917 7.42627 52.4805 7.42627 55.6436H10.4263Z" fill="url(#paint7_linear_1811_5260)" mask="url(#path-8-inside-2_1811_5260)"/>
<defs>
<linearGradient id="paint0_linear_1811_5260" x1="34.23" y1="17.4964" x2="68.4745" y2="52.6358" gradientUnits="userSpaceOnUse">
<stop offset="0.0144231" stop-color="#D90D26"/>
<stop offset="0.488373" stop-color="#E94055"/>
<stop offset="1" stop-color="#D90D26"/>
</linearGradient>
<linearGradient id="paint1_linear_1811_5260" x1="34.23" y1="28.4714" x2="51.4909" y2="58.7293" gradientUnits="userSpaceOnUse">
<stop offset="0.0144231" stop-color="#D90D26"/>
<stop offset="0.488373" stop-color="#E94055"/>
<stop offset="1" stop-color="#D90D26"/>
</linearGradient>
<linearGradient id="paint2_linear_1811_5260" x1="37.11" y1="-3.70361" x2="56.6504" y2="24.5648" gradientUnits="userSpaceOnUse">
<stop offset="0.0144231" stop-color="#D90D26"/>
<stop offset="0.488373" stop-color="#E94055"/>
<stop offset="1" stop-color="#D90D26"/>
</linearGradient>
<linearGradient id="paint3_linear_1811_5260" x1="59.8" y1="35.2214" x2="71.4807" y2="47.5378" gradientUnits="userSpaceOnUse">
<stop offset="0.0144231" stop-color="#D90D26"/>
<stop offset="0.488373" stop-color="#E94055"/>
<stop offset="1" stop-color="#D90D26"/>
</linearGradient>
<linearGradient id="paint4_linear_1811_5260" x1="44.02" y1="15.5214" x2="58.3914" y2="26.1288" gradientUnits="userSpaceOnUse">
<stop offset="0.0144231" stop-color="#D90D26"/>
<stop offset="0.488373" stop-color="#E94055"/>
<stop offset="1" stop-color="#D90D26"/>
</linearGradient>
<linearGradient id="paint5_linear_1811_5260" x1="10.2591" y1="43.4777" x2="27.4331" y2="59.672" gradientUnits="userSpaceOnUse">
<stop offset="0.0144231" stop-color="#D90D26"/>
<stop offset="0.488373" stop-color="#E94055"/>
<stop offset="1" stop-color="#D90D26"/>
</linearGradient>
<linearGradient id="paint6_linear_1811_5260" x1="11.3164" y1="33.1716" x2="23.1434" y2="44.893" gradientUnits="userSpaceOnUse">
<stop offset="0.0144231" stop-color="#D90D26"/>
<stop offset="0.488373" stop-color="#E94055"/>
<stop offset="1" stop-color="#D90D26"/>
</linearGradient>
<linearGradient id="paint7_linear_1811_5260" x1="12.5525" y1="51.3843" x2="18.1047" y2="53.9354" gradientUnits="userSpaceOnUse">
<stop offset="0.0144231" stop-color="#D90D26"/>
<stop offset="0.488373" stop-color="#E94055"/>
<stop offset="1" stop-color="#D90D26"/>
</linearGradient>
</defs>
</svg>
