<svg width="35" height="36" viewBox="0 0 35 36" fill="none" xmlns="http://www.w3.org/2000/svg">
<g clip-path="url(#clip0_1811_5616)">
<path d="M9.59005 26.4448C15.0458 31.8382 21.672 36 27.09 36C29.5253 36 31.6585 35.1601 33.3765 33.2938C34.3769 32.1927 35 30.905 35 29.6361C35 28.7028 34.6412 27.807 33.7539 27.1726L27.9585 23.1041C27.09 22.5069 26.335 22.2083 25.6553 22.2083C24.8057 22.2083 24.0318 22.6936 23.1634 23.5333L21.8231 24.8398C21.6154 25.0451 21.3511 25.1384 21.1057 25.1384C20.8225 25.1384 20.5393 25.0263 20.3505 24.933C19.18 24.3172 17.1791 22.6189 15.3101 20.79C13.4601 18.961 11.7422 16.9829 11.1381 15.8258C11.0437 15.6205 10.9304 15.3592 10.9304 15.0793C10.9304 14.8367 11.0059 14.5941 11.2136 14.3888L12.5539 13.0264C13.3845 12.1679 13.8943 11.4214 13.8943 10.563C13.8943 9.89112 13.5922 9.16328 12.9504 8.28613L8.89157 2.6314C8.24971 1.7356 7.30582 1.34369 6.28639 1.34369C5.04045 1.34369 3.75673 1.90356 2.64292 2.96732C0.811757 4.70293 0 6.84912 0 9.21926C0 14.5754 4.1343 21.07 9.59005 26.4448Z" fill="black"/>
</g>
<defs>
<clipPath id="clip0_1811_5616">
<rect width="35" height="36" fill="white"/>
</clipPath>
</defs>
</svg>
