<svg width="35" height="36" viewBox="0 0 35 36" fill="none" xmlns="http://www.w3.org/2000/svg">
<g clip-path="url(#clip0_1819_378)">
<path d="M9.59005 26.4449C15.0458 31.8383 21.672 36 27.09 36C29.5253 36 31.6585 35.1601 33.3765 33.2939C34.3769 32.1928 35 30.9051 35 29.6361C35 28.7029 34.6412 27.8071 33.7539 27.1726L27.9585 23.1042C27.09 22.507 26.335 22.2084 25.6553 22.2084C24.8057 22.2084 24.0318 22.6936 23.1634 23.5334L21.8231 24.8399C21.6154 25.0452 21.3511 25.1385 21.1057 25.1385C20.8225 25.1385 20.5393 25.0264 20.3505 24.9331C19.18 24.3172 17.1791 22.619 15.3101 20.7901C13.4601 18.9611 11.7422 16.983 11.1381 15.8258C11.0437 15.6206 10.9304 15.3593 10.9304 15.0793C10.9304 14.8367 11.0059 14.5941 11.2136 14.3888L12.5539 13.0265C13.3845 12.168 13.8943 11.4215 13.8943 10.563C13.8943 9.89118 13.5922 9.16334 12.9504 8.28619L8.89157 2.63146C8.24971 1.73566 7.30582 1.34375 6.28639 1.34375C5.04045 1.34375 3.75673 1.90362 2.64292 2.96739C0.811757 4.70299 0 6.84918 0 9.21932C0 14.5755 4.1343 21.0701 9.59005 26.4449Z" fill="#FCFCFC"/>
</g>
<defs>
<clipPath id="clip0_1819_378">
<rect width="35" height="36" fill="white"/>
</clipPath>
</defs>
</svg>
