<svg width="49" height="49" viewBox="0 0 49 49" fill="none" xmlns="http://www.w3.org/2000/svg">
<g clip-path="url(#clip0_1811_5603)">
<path fill-rule="evenodd" clip-rule="evenodd" d="M49 24.5C49 38.031 38.031 49 24.5 49C10.969 49 0 38.031 0 24.5C0 10.969 10.969 0 24.5 0C38.031 0 49 10.969 49 24.5ZM25.378 18.087C22.995 19.0781 18.2324 21.1296 11.0901 24.2414C9.93032 24.7026 9.32278 25.1538 9.26747 25.595C9.174 26.3406 10.1077 26.6342 11.3792 27.034C11.5521 27.0883 11.7313 27.1447 11.915 27.2044C13.166 27.611 14.8487 28.0868 15.7235 28.1056C16.517 28.1228 17.4026 27.7957 18.3804 27.1242C25.0536 22.6196 28.4984 20.3428 28.7146 20.2937C28.8672 20.2591 29.0786 20.2155 29.2219 20.3429C29.3652 20.4702 29.3511 20.7113 29.3359 20.776C29.2434 21.1703 25.5783 24.5778 23.6815 26.3411C23.0902 26.8909 22.6708 27.2808 22.5851 27.3698C22.393 27.5693 22.1973 27.758 22.0091 27.9394C20.847 29.0597 19.9755 29.8998 22.0574 31.2718C23.0579 31.9311 23.8584 32.4763 24.6571 33.0202C25.5294 33.6142 26.3993 34.2066 27.525 34.9445C27.8117 35.1325 28.0856 35.3277 28.3524 35.5179C29.3675 36.2416 30.2794 36.8917 31.4061 36.788C32.0608 36.7278 32.737 36.1122 33.0805 34.2762C33.8921 29.9372 35.4875 20.536 35.8562 16.662C35.8885 16.3226 35.8479 15.8882 35.8152 15.6975C35.7826 15.5068 35.7144 15.2351 35.4665 15.034C35.173 14.7958 34.7198 14.7456 34.5172 14.7492C33.5957 14.7654 32.1819 15.257 25.378 18.087Z" fill="black"/>
</g>
<defs>
<clipPath id="clip0_1811_5603">
<rect width="49" height="49" fill="white"/>
</clipPath>
</defs>
</svg>
