<svg width="49" height="49" viewBox="0 0 49 49" fill="none" xmlns="http://www.w3.org/2000/svg">
<g clip-path="url(#clip0_1811_5604)">
<path d="M25.5352 0C36.6108 6.35166e-10 42.1795 -0.000241744 45.5898 3.43945C49.0002 6.87923 49 12.4185 49 23.4648V25.5352C49 36.5836 49.0296 42.1208 45.5898 45.5605C42.1501 49.0003 36.6108 49 25.5352 49H23.4941C12.4165 49 6.87922 49.0003 3.43945 45.5605C-0.000296638 42.1208 3.71484e-10 36.5836 0 25.5352V23.4648C2.32843e-10 12.4146 -0.000304067 6.87923 3.43945 3.43945C6.87922 -0.000295536 12.4165 6.68732e-10 23.4941 0H25.5352ZM8.28027 14.9248C8.54097 27.6628 15.2464 35.3291 26.2949 35.3291H26.9355V28.042C30.9575 28.4497 33.9605 31.4522 35.1855 35.3291H40.9854C39.4115 29.5295 35.3301 26.3227 32.7939 25.0977C35.3301 23.5825 38.9149 19.9091 39.7598 14.9248H34.4854C33.3762 18.9761 30.0832 22.6492 26.9355 22.998V14.9248H21.5713V29.0625C18.3079 28.253 14.0504 24.2818 13.876 14.9248H8.28027Z" fill="black"/>
</g>
<defs>
<clipPath id="clip0_1811_5604">
<rect width="49" height="49" fill="white"/>
</clipPath>
</defs>
</svg>
