<svg width="49" height="49" viewBox="0 0 49 49" fill="none" xmlns="http://www.w3.org/2000/svg">
<path d="M22.0698 0.0291557C17.5104 0.517708 13.3342 2.16537 9.60811 4.95298C8.39163 5.86303 5.89162 8.36326 4.98166 9.57985C2.49123 12.9039 0.958658 16.4579 0.269001 20.5004C0.0103794 21.9948 -0.0854064 25.4434 0.087008 27.0048C0.527622 31.1048 1.86862 34.8121 4.11001 38.1361L4.6081 38.8737L3.06595 43.4336C2.22303 45.9434 1.54295 48.0029 1.55253 48.0125C1.56211 48.0317 3.64066 47.3803 6.1694 46.566C8.69815 45.7518 10.8533 45.0812 10.9491 45.0812C11.0449 45.0812 11.3514 45.2153 11.6196 45.3878C14.6848 47.3036 18.2288 48.5106 21.9932 48.913C23.5545 49.0854 27.0028 48.9896 28.4971 48.731C32.5392 48.0413 36.1025 46.5085 39.4166 44.0179C40.6331 43.1079 43.1331 40.6076 44.0431 39.391C46.5718 36.0095 48.114 32.3789 48.8132 28.1735C49.0623 26.66 49.0623 22.3109 48.8132 20.7974C48.114 16.592 46.5718 12.9614 44.0431 9.57985C43.1331 8.36326 40.6331 5.86303 39.4166 4.95298C36.1025 2.47191 32.5584 0.939201 28.4971 0.239906C27.5679 0.0770531 26.8495 0.0291557 24.8955 0.00999832C23.5545 -0.00915909 22.2806 0.000419617 22.0698 0.0291557ZM16.8016 11.3999C17.0507 11.5053 17.1943 11.6777 17.4147 12.1184C17.9702 13.2105 20.0104 18.2301 20.0104 18.4983C20.0104 18.9485 19.6369 19.5425 18.7078 20.6058C18.2193 21.1518 17.7691 21.6978 17.7116 21.7936C17.453 22.2822 17.702 22.9336 18.6599 24.2939C20.7576 27.2731 23.1522 29.3614 26.1695 30.8079C28.5641 31.967 28.861 31.8903 30.4032 29.7541C31.5143 28.2118 31.9549 27.8478 32.5967 27.9915C33.248 28.1352 38.8323 30.8558 39.0718 31.1527C39.4166 31.5646 39.1101 33.8254 38.5546 34.9079C37.7595 36.4789 35.2979 37.9254 33.0565 38.1361C30.7289 38.366 25.1829 36.431 21.8974 34.2469C18.5737 32.034 15.1541 28.413 12.4913 24.3034C11.1503 22.2343 10.3361 19.8394 10.3361 17.9714C10.3361 15.9597 10.9587 14.2546 12.2518 12.7315C12.8457 12.013 13.4012 11.6203 14.1005 11.4095C14.656 11.2275 16.3802 11.2275 16.8016 11.3999Z" fill="#FCFCFC"/>
</svg>
